<svg width="250" height="268" viewBox="0 0 250 268" fill="none" xmlns="http://www.w3.org/2000/svg">
<g clip-path="url(#clip0_23_996)">
<path d="M215.266 168C208.489 168 201.864 166.006 196.229 162.27C190.594 158.534 186.202 153.224 183.608 147.011C181.015 140.799 180.336 133.962 181.658 127.367C182.981 120.772 186.244 114.713 191.036 109.958C195.828 105.203 201.934 101.965 208.581 100.653C215.228 99.3414 222.117 100.015 228.378 102.588C234.64 105.162 239.991 109.519 243.756 115.111C247.521 120.702 249.531 127.276 249.531 134C249.521 143.014 245.907 151.656 239.484 158.03C233.06 164.404 224.35 167.99 215.266 168ZM215.266 101.764C208.84 101.764 202.559 103.654 197.216 107.197C191.874 110.739 187.71 115.773 185.251 121.664C182.792 127.554 182.148 134.036 183.402 140.289C184.655 146.542 187.75 152.286 192.293 156.794C196.837 161.303 202.625 164.373 208.927 165.617C215.229 166.861 221.762 166.222 227.698 163.782C233.634 161.343 238.708 157.211 242.278 151.91C245.848 146.608 247.753 140.376 247.753 134C247.744 125.454 244.318 117.26 238.227 111.217C232.137 105.173 223.879 101.774 215.266 101.764Z" fill="url(#paint0_linear_23_996)"/>
<path d="M236.346 135.076V131.315H233.704V132.824L228.588 128.461L223.009 133.218V130.277L208.61 118L194.211 130.277V149.411H238.178V136.638L236.346 135.076ZM234.618 132.222H235.432V134.296L234.618 133.603V132.222ZM211.353 148.051H205.867V135.805H211.353L211.353 148.051ZM221.637 148.051H212.724V134.444H204.496V148.051H195.582V130.902L208.61 119.794L221.637 130.902L221.637 148.051ZM229.355 148.051H227.821V143.645H229.355L229.355 148.051ZM236.807 148.051H230.726V142.285H226.449V148.051H223.009V135.012L228.588 130.255L236.807 137.263L236.807 148.051Z" fill="url(#paint1_linear_23_996)"/>
</g>
<path d="M108.582 3.98085C111.231 5.77936 113.393 8.2061 114.875 11.0442C116.333 13.9371 117.093 17.1318 117.093 20.3716C117.093 23.6114 116.333 26.806 114.875 29.6989C113.393 32.537 111.231 34.9638 108.582 36.7623C106.064 38.4832 103.181 39.5975 100.16 40.0181C97.1301 40.4422 94.0743 40.6539 91.015 40.6519H83.5914V34.5872H90.5636C92.6748 34.5872 94.6819 34.5264 96.585 34.4048C98.5914 34.2569 100.547 33.703 102.333 32.7769C104.712 31.7028 106.737 29.9762 108.174 27.7975C109.507 25.5415 110.21 22.9691 110.21 20.3488C110.21 17.7284 109.507 15.1561 108.174 12.9001C106.725 10.743 104.702 9.03396 102.333 7.96623C100.565 6.9879 98.6016 6.41617 96.585 6.29273C94.6835 6.20153 92.6763 6.15593 90.5636 6.15593H78.8833V68.1803H72V2.51896e-05H91.015C94.076 -0.00275351 97.1329 0.224363 100.16 0.679466C103.18 1.13299 106.059 2.2614 108.582 3.98085Z" fill="#808285"/>
<path d="M155.754 68.0892H147.335L120.896 33.6799L146.881 0.177734H155.121L128.862 33.593L155.754 68.0892Z" fill="#808285"/>
<path d="M218.684 0.177734V67.9978H211.894V9.325H210.718L170.424 67.9978H162.093L209.45 0.177734H218.684Z" fill="#808285"/>
<path d="M46.0874 122.182C46.1169 124.931 45.5935 127.657 44.5484 130.199C43.561 132.585 42.1147 134.754 40.2917 136.583C38.4406 138.421 36.2603 139.895 33.8644 140.928C31.3405 142.025 28.6432 142.669 25.896 142.83L44.9999 168.092H36.5799L13.5818 137.394C14.6078 137.394 15.7549 137.413 17.0223 137.44C18.2899 137.472 19.5728 137.457 20.8709 137.394C22.1682 137.335 23.4358 137.23 24.6739 137.08C25.8221 136.946 26.9574 136.719 28.0686 136.4C31.2669 135.493 34.1106 133.628 36.2172 131.056C38.2785 128.496 39.3687 125.29 39.2952 122.005C39.2854 119.371 38.6 116.783 37.3048 114.49C36.0641 112.163 34.1774 110.243 31.8716 108.963C29.895 107.862 27.7296 107.142 25.4876 106.838C23.2201 106.557 20.937 106.42 18.6522 106.428H0V100.181H17.2936C20.1223 100.196 22.9482 100.362 25.7592 100.678C28.5956 100.954 31.3655 101.705 33.9534 102.898C37.6511 104.565 40.7711 107.291 42.9182 110.732C45.0383 114.172 46.1374 118.143 46.0874 122.182Z" fill="#808285"/>
<path d="M52.9707 100.181H90.1821V106.337H59.8517V130.782H77.5055V136.943H59.8517V162.023H90.1821V168.087H52.9707V100.181Z" fill="#808285"/>
<path d="M150.939 100.181V168.092H144.053L103.853 108.421H103.762V168.092H96.8806V100.181H106.028L143.967 156.5H144.053V106.428H127.938V100.181H150.939Z" fill="#808285"/>
<path d="M131.592 268.003C127.083 268.019 122.616 267.125 118.459 265.377C114.386 263.686 110.658 261.261 107.461 258.222C104.269 255.177 101.688 251.55 99.8549 247.538C97.9504 243.425 96.9758 238.943 97.0006 234.41C96.9723 229.788 97.8975 225.211 99.7184 220.963C101.456 216.876 103.978 213.171 107.142 210.055C110.317 206.953 114.05 204.479 118.145 202.764C126.724 199.217 136.357 199.201 144.948 202.718C149.047 204.408 152.793 206.85 155.993 209.919C159.181 212.992 161.748 216.65 163.553 220.694C165.406 224.887 166.362 229.42 166.362 234.004C166.362 238.588 165.406 243.122 163.553 247.315C159.901 255.501 153.24 261.969 144.949 265.377C140.716 267.134 136.175 268.027 131.592 268.003ZM131.592 205.979C127.806 205.951 124.057 206.722 120.589 208.24C117.257 209.698 114.231 211.773 111.67 214.355C106.432 219.715 103.507 226.916 103.521 234.41C103.497 238.108 104.27 241.767 105.787 245.139C107.249 248.428 109.323 251.408 111.898 253.922C114.475 256.438 117.5 258.45 120.817 259.854C124.222 261.308 127.89 262.047 131.592 262.025C135.309 262.044 138.991 261.305 142.413 259.854C145.753 258.45 148.794 256.421 151.373 253.876C153.957 251.317 156.032 248.29 157.488 244.957C159.002 241.521 159.773 237.804 159.75 234.05C159.767 230.328 159.012 226.644 157.534 223.229C154.64 216.473 149.256 211.091 142.5 208.199C139.057 206.711 135.342 205.955 131.592 205.979Z" fill="#808285"/>
<path d="M193.069 200.092V206.252H176.863V258.856H177.948L198.14 229.07L202.485 223.001L218.331 200.092H226.571L179.216 268.003H169.982V200.092H193.069Z" fill="#808285"/>
<defs>
<linearGradient id="paint0_linear_23_996" x1="241.72" y1="155.586" x2="189.143" y2="112.012" gradientUnits="userSpaceOnUse">
<stop stop-color="#00FFFF"/>
<stop offset="1" stop-color="#0000FF"/>
</linearGradient>
<linearGradient id="paint1_linear_23_996" x1="234.45" y1="156.006" x2="209.659" y2="135.46" gradientUnits="userSpaceOnUse">
<stop stop-color="#00FFFF"/>
<stop offset="1" stop-color="#0000FF"/>
</linearGradient>
<clipPath id="clip0_23_996">
<rect width="69" height="68" fill="white" transform="translate(181 100)"/>
</clipPath>
</defs>
</svg>
