<svg xmlns="http://www.w3.org/2000/svg" xmlns:xlink="http://www.w3.org/1999/xlink" viewBox="0 0 120.43339 120.43339">
  <defs>
    <linearGradient id="Dégradé_sans_nom_2" data-name="Dégradé sans nom 2" x1="106.7073" y1="98.44796" x2="13.72638" y2="21.98563" gradientUnits="userSpaceOnUse">
      <stop offset="0" stop-color="aqua"/>
      <stop offset="1" stop-color="blue"/>
    </linearGradient>
    <linearGradient id="Dégradé_sans_nom_2-2" x1="93.92992" y1="90.5216" x2="50.08778" y2="54.46826" xlink:href="#Dégradé_sans_nom_2"/>
  </defs>
  <g id="Calque_2" data-name="Calque 2">
    <g id="Calque_1-2" data-name="Calque 1">
      <g>
        <path d="M60.217,120.43339A60.2167,60.2167,0,1,1,120.43339,60.217,60.2847,60.2847,0,0,1,60.217,120.43339Zm0-117.30938A57.09269,57.09269,0,1,0,117.30938,60.217,57.1577,57.1577,0,0,0,60.217,3.124Z" style="fill: url(#Dégradé_sans_nom_2)"/>
        <path d="M97.26221,53.45211V46.79135H92.61979v2.67183l-8.99145-7.72569-9.80418,8.42442V44.95219L48.52027,23.20936,23.21678,44.95219V78.84158h77.26563V56.219Zm-3.03583-5.05417h1.42928v3.67377l-1.42928-1.2281Zm-40.886,28.03379H43.70058V54.74343h9.63979Zm18.074,0H55.75025V52.33354H41.29069V76.43173H25.62663V46.05908L48.52027,26.38642,71.41432,46.05908V76.43173Zm13.56248,0H82.28064V68.6295H84.9768Zm13.09576,0H87.38668V66.21965H79.87076V76.43173h-6.0466V53.33929l9.80418-8.42475L98.07256,57.32583Z" style="fill: url(#Dégradé_sans_nom_2-2)"/>
        <g>
          <path d="M29.93076,83.94144a3.44251,3.44251,0,0,1,1.11777,1.25466,3.68009,3.68009,0,0,1,0,3.31365,3.44262,3.44262,0,0,1-1.11777,1.25467,3.50947,3.50947,0,0,1-1.49605.57833,11.66343,11.66343,0,0,1-1.62442.11258H25.49163V89.37805H26.7301q.56253,0,1.06959-.0324a2.63938,2.63938,0,0,0,1.021-.28916,2.45149,2.45149,0,0,0,1.03759-.8845,2.60107,2.60107,0,0,0,0-2.64622,2.47492,2.47492,0,0,0-1.03759-.87641,2.41292,2.41292,0,0,0-1.021-.29726q-.50665-.0243-1.06959-.0243H24.65533V95.34521H23.43265V83.23432h3.37764a10.85956,10.85956,0,0,1,1.62442.12069A3.60883,3.60883,0,0,1,29.93076,83.94144Z" style="fill: #808285"/>
          <path d="M38.31,95.329H36.81441l-4.69629-6.11214,4.6157-5.951h1.46364l-4.6643,5.93557Z" style="fill: #808285"/>
          <path d="M49.48824,83.26591v12.0469H48.28217V84.89074h-.209L40.91577,95.31281H39.43592l8.4121-12.0469Z" style="fill: #808285"/>
          <path d="M58.46287,87.19029a3.6421,3.6421,0,0,1-.27337,1.42395,3.50464,3.50464,0,0,1-.75612,1.134,3.69752,3.69752,0,0,1-1.14168.77191,4.16271,4.16271,0,0,1-1.41544.33777l3.39343,4.48731H56.77405l-4.08516-5.45282c.18225,0,.386.00324.61114.0081q.33775.0085.68362-.0081.34566-.01579.67553-.05589a3.76948,3.76948,0,0,0,.603-.12068,2.89076,2.89076,0,0,0,1.44745-.9493,2.47534,2.47534,0,0,0,.54674-1.60782,2.73531,2.73531,0,0,0-.35356-1.33486,2.43085,2.43085,0,0,0-.9651-.9817,3.21624,3.21624,0,0,0-1.134-.37745,9.60132,9.60132,0,0,0-1.21416-.0729H50.27635V83.28211h3.07187a14.12383,14.12383,0,0,1,1.50374.08829,4.52212,4.52212,0,0,1,1.45554.39446,3.63983,3.63983,0,0,1,1.59243,1.39155A3.78661,3.78661,0,0,1,58.46287,87.19029Z" style="fill: #808285"/>
          <path d="M59.68554,83.23432h6.60988V84.3278H60.90781v4.34233h3.13585v1.09429H60.90781v4.45491h5.38761v1.07728H59.68554Z" style="fill: #808285"/>
          <path d="M77.08765,83.26591V95.329H75.86458L68.72375,84.72955h-.0162V95.329H67.48529V83.26591h1.62483L75.84919,93.27h.01539V84.37559H73.00209V83.26591h4.08556Z" style="fill: #808285"/>
          <path d="M83.82673,95.329a5.96238,5.96238,0,0,1-2.33276-.46655,6.39042,6.39042,0,0,1-1.95368-1.27087,6.16284,6.16284,0,0,1-1.35106-1.89779,5.47854,5.47854,0,0,1-.507-2.33195,5.96982,5.96982,0,0,1,.48275-2.38864,6.03025,6.03025,0,0,1,1.31866-1.93748,6.25032,6.25032,0,0,1,1.95449-1.29517,6.25645,6.25645,0,0,1,4.76109-.0081,6.30981,6.30981,0,0,1,1.96178,1.279,6.12686,6.12686,0,0,1,1.343,1.914,5.85131,5.85131,0,0,1,0,4.72869,6.19949,6.19949,0,0,1-3.30474,3.20835A6.10191,6.10191,0,0,1,83.82673,95.329Zm0-11.01741a4.78741,4.78741,0,0,0-1.9545.40175,5.12243,5.12243,0,0,0-1.58433,1.08619,5.0833,5.0833,0,0,0-1.44744,3.56231,4.57459,4.57459,0,0,0,.40256,1.9059,5.04134,5.04134,0,0,0,1.08538,1.56,5.132,5.132,0,0,0,1.58433,1.05379,4.80223,4.80223,0,0,0,1.914.38555,4.86129,4.86129,0,0,0,1.92209-.38555,5.05641,5.05641,0,0,0,1.59162-1.06189,5.10837,5.10837,0,0,0,1.08619-1.58433,4.73027,4.73027,0,0,0,.40175-1.93748,4.78428,4.78428,0,0,0-.39365-1.9221,5.07891,5.07891,0,0,0-2.67052-2.66971A4.80787,4.80787,0,0,0,83.82673,84.3116Z" style="fill: #808285"/>
          <path d="M94.74694,83.26591V84.3602H91.86825v9.344H92.061l3.58661-5.29082.77192-1.07809,2.81469-4.06936h1.46365L92.28621,95.329H90.646V83.26591h4.10095Z" style="fill: #808285"/>
        </g>
      </g>
    </g>
  </g>
</svg>
