<svg width="435" height="69" viewBox="0 0 435 69" fill="none" xmlns="http://www.w3.org/2000/svg">
<path d="M36.5822 3.98085C39.231 5.77936 41.393 8.2061 42.8749 11.0442C44.3335 13.9371 45.0933 17.1318 45.0933 20.3716C45.0933 23.6114 44.3335 26.806 42.8749 29.6989C41.393 32.537 39.231 34.9638 36.5822 36.7623C34.0637 38.4832 31.181 39.5975 28.1599 40.0181C25.1301 40.4422 22.0743 40.6539 19.015 40.6519H11.5914V34.5872H18.5636C20.6748 34.5872 22.6819 34.5264 24.585 34.4048C26.5914 34.2569 28.5469 33.703 30.3329 32.7769C32.7117 31.7028 34.7371 29.9762 36.1742 27.7975C37.5071 25.5415 38.2102 22.9691 38.2102 20.3488C38.2102 17.7284 37.5071 15.1561 36.1742 12.9001C34.7253 10.743 32.702 9.03396 30.3329 7.96623C28.5652 6.9879 26.6016 6.41617 24.585 6.29273C22.6835 6.20153 20.6763 6.15593 18.5636 6.15593H6.88329V68.1803H0V2.51896e-05H19.015C22.076 -0.00275351 25.1329 0.224363 28.1599 0.679466C31.1798 1.13299 34.0586 2.2614 36.5822 3.98085Z" fill="#808285"/>
<path d="M83.7545 68.0892H75.3348L48.8962 33.6799L74.8811 0.177734H83.1209L56.8625 33.593L83.7545 68.0892Z" fill="#808285"/>
<path d="M146.684 0.177734V67.9978H139.894V9.325H138.718L98.4241 67.9978H90.093L137.45 0.177734H146.684Z" fill="#808285"/>
<path d="M197.209 22.2708C197.238 25.0191 196.715 27.7452 195.67 30.2872C194.682 32.6732 193.236 34.8422 191.413 36.6712C189.562 38.5097 187.381 39.9838 184.986 41.0168C182.462 42.1136 179.764 42.7573 177.017 42.9183L196.121 68.1804H187.701L164.703 37.4828C165.729 37.4828 166.876 37.5011 168.143 37.5284C169.411 37.5603 170.694 37.5451 171.992 37.4828C173.289 37.4236 174.557 37.3187 175.795 37.1682C176.943 37.0345 178.079 36.8074 179.19 36.4888C182.388 35.5815 185.232 33.7165 187.338 31.1446C189.4 28.5847 190.49 25.3788 190.416 22.0931C190.406 19.4591 189.721 16.8717 188.426 14.5782C187.185 12.251 185.298 10.3318 182.993 9.05161C181.016 7.95067 178.851 7.22988 176.609 6.92666C174.341 6.64553 172.058 6.50846 169.773 6.51626H151.121V0.269043H168.415C171.243 0.284021 174.069 0.449924 176.88 0.766071C179.717 1.04243 182.487 1.79311 185.074 2.98676C188.772 4.6533 191.892 7.37971 194.039 10.8207C196.159 14.26 197.259 18.2309 197.209 22.2708Z" fill="#808285"/>
<path d="M204.092 0H241.303V6.1559H210.973V30.6018H228.627V36.7623H210.973V61.842H241.303V67.9067H204.092V0Z" fill="#808285"/>
<path d="M302.06 0.177734V68.089H295.174L254.974 8.41757H254.883V68.089H248.002V0.177734H257.149L295.088 56.4974H295.174V6.42487H279.059V0.177734H302.06Z" fill="#808285"/>
<path d="M339.999 68.089C335.489 68.1046 331.023 67.2113 326.866 65.4625C322.792 63.772 319.064 61.3468 315.867 58.3079C312.676 55.2625 310.094 51.6364 308.261 47.6239C306.357 43.5108 305.382 39.0285 305.407 34.4958C305.379 29.8742 306.304 25.2965 308.125 21.0486C309.862 16.9623 312.384 13.2566 315.548 10.1412C318.723 7.03845 322.457 4.56445 326.552 2.84984C335.131 -0.697126 344.764 -0.713485 353.355 2.80427C357.453 4.4942 361.199 6.93637 364.399 10.0046C367.588 13.0777 370.155 16.736 371.96 20.7798C373.812 24.9729 374.769 29.5063 374.769 34.0903C374.769 38.6742 373.812 43.2077 371.96 47.4007C368.308 55.5872 361.646 62.0546 353.355 65.4627C349.123 67.2203 344.581 68.1133 339.999 68.089ZM339.999 6.06464C336.213 6.03735 332.464 6.80798 328.995 8.32635C325.663 9.78397 322.637 11.8587 320.076 14.4412C314.839 19.8013 311.913 27.0019 311.928 34.4958C311.904 38.1936 312.677 41.8531 314.194 45.2254C315.655 48.5138 317.729 51.4942 320.304 54.0077C322.881 56.5239 325.907 58.536 329.223 59.9402C332.629 61.3939 336.296 62.1327 339.999 62.1107C343.716 62.1296 347.397 61.391 350.819 59.9402C354.159 58.5359 357.201 56.5069 359.78 53.9621C362.364 51.4025 364.439 48.3759 365.895 45.0429C367.409 41.6072 368.18 37.8901 368.156 34.1355C368.173 30.4142 367.418 26.7298 365.94 23.3147C363.047 16.5589 357.663 11.1766 350.906 8.28511C347.463 6.79728 343.749 6.04112 339.999 6.06464Z" fill="#808285"/>
<path d="M401.476 0.177734V6.33823H385.27V58.9419H386.355L406.546 29.1563L410.892 23.087L426.738 0.177863H434.978L387.623 68.089H378.389V0.177734H401.476Z" fill="#808285"/>
</svg>
