<svg width="158" height="26" viewBox="0 0 158 26" fill="none" xmlns="http://www.w3.org/2000/svg">
<path d="M53.1719 10.9082H58.9043C61.7949 10.9082 63.7871 12.832 63.7871 15.7324C63.7871 18.623 61.7266 20.5566 58.7578 20.5566H56.1211V25H53.1719V10.9082ZM56.1211 13.2422V18.252H58.1133C59.8027 18.252 60.7891 17.3535 60.7891 15.7422C60.7891 14.1406 59.8125 13.2422 58.123 13.2422H56.1211Z" fill="#555555"/>
<path d="M68.25 18.7305L71.8047 14.5312H75.0371L71.043 19.0234L75.2324 25H71.9512L68.9531 20.7422L68.2109 21.543V25H65.3594V10.9082H68.2109V18.7305H68.25Z" fill="#555555"/>
<path d="M80.0371 23.1055C81.2773 23.1055 82.3027 22.2949 82.3027 21.1621V20.4004L80.0957 20.5371C79.0312 20.6152 78.4258 21.0938 78.4258 21.8359C78.4258 22.6172 79.0703 23.1055 80.0371 23.1055ZM79.0996 25.166C77.1074 25.166 75.5938 23.877 75.5938 21.9922C75.5938 20.0879 77.0586 18.9844 79.666 18.8281L82.3027 18.6719V17.9785C82.3027 17.002 81.6191 16.4355 80.5449 16.4355C79.4805 16.4355 78.8066 16.9629 78.6699 17.7344H76.0625C76.1699 15.7031 77.8984 14.3066 80.6719 14.3066C83.3574 14.3066 85.1055 15.6934 85.1055 17.8027V25H82.3516V23.3984H82.293C81.707 24.5117 80.4082 25.166 79.0996 25.166Z" fill="#555555"/>
<path d="M90.1445 13.2129V17.7051H92.6836C94.168 17.7051 95.0371 16.8555 95.0371 15.459C95.0371 14.0918 94.1191 13.2129 92.6543 13.2129H90.1445ZM90.1445 19.8438V25H87.1953V10.9082H92.9668C96.209 10.9082 98.0645 12.6172 98.0645 15.4004C98.0645 17.207 97.127 18.7695 95.5059 19.4043L98.4746 25H95.1348L92.5078 19.8438H90.1445Z" fill="#555555"/>
<path d="M104.363 16.416C103.113 16.416 102.215 17.3633 102.117 18.6719H106.561C106.502 17.334 105.633 16.416 104.363 16.416ZM106.6 21.7969H109.217C108.904 23.8477 107.029 25.2246 104.441 25.2246C101.219 25.2246 99.2852 23.1641 99.2852 19.8145C99.2852 16.4746 101.238 14.3066 104.334 14.3066C107.381 14.3066 109.305 16.3672 109.305 19.5508V20.4199H102.088V20.5957C102.088 22.0898 103.035 23.1152 104.49 23.1152C105.535 23.1152 106.336 22.5977 106.6 21.7969Z" fill="#555555"/>
<path d="M110.779 25V14.5312H113.533V16.3965H113.592C114.148 15.0977 115.252 14.3359 116.863 14.3359C119.188 14.3359 120.496 15.8008 120.496 18.252V25H117.645V18.8477C117.645 17.4805 117 16.6992 115.721 16.6992C114.441 16.6992 113.631 17.6367 113.631 18.9941V25H110.779Z" fill="#555555"/>
<path d="M127.107 25.2246C123.943 25.2246 121.922 23.1934 121.922 19.7559C121.922 16.3672 123.973 14.3066 127.107 14.3066C130.242 14.3066 132.293 16.3574 132.293 19.7559C132.293 23.2031 130.271 25.2246 127.107 25.2246ZM127.107 23.0469C128.504 23.0469 129.393 21.8652 129.393 19.7656C129.393 17.6855 128.494 16.4844 127.107 16.4844C125.721 16.4844 124.812 17.6855 124.812 19.7656C124.812 21.8652 125.701 23.0469 127.107 23.0469Z" fill="#555555"/>
<path d="M143.084 14.5312L139.49 25H136.268L132.645 14.5312H135.701L137.879 22.4805H137.938L140.105 14.5312H143.084Z" fill="#555555"/>
<path d="M152.869 19.4824C150.076 19.4824 147.898 17.3438 147.898 14.5605C147.898 11.7871 150.066 9.63867 152.869 9.63867C155.672 9.63867 157.84 11.7773 157.84 14.5605C157.84 17.3438 155.672 19.4824 152.869 19.4824ZM152.869 18.2324C154.93 18.2324 156.492 16.6504 156.492 14.5605C156.492 12.4707 154.93 10.8984 152.869 10.8984C150.818 10.8984 149.256 12.4707 149.256 14.5605C149.256 16.6504 150.818 18.2324 152.869 18.2324ZM152.127 16.7578H150.926V12.2363H153.289C154.295 12.2363 154.969 12.8223 154.969 13.6816C154.969 14.3652 154.598 14.8828 154.012 15.0391L155.203 16.7578H153.758L152.771 15.2148H152.127V16.7578ZM152.127 13.1934V14.3359H153.016C153.445 14.3359 153.699 14.1309 153.699 13.7598C153.699 13.3887 153.465 13.1934 153.035 13.1934H152.127Z" fill="#555555"/>
<path d="M34.4996 14.0909V10.9874H32.3366V12.2323L28.1473 8.63272L23.5793 12.5579V10.1305L11.7895 0L0 10.1305V25.9205H36V15.38L34.4996 14.0909ZM33.0852 11.736H33.7511V13.4477L33.0852 12.8755V11.736ZM14.0353 24.7976H9.54392V14.6925H14.0353L14.0353 24.7976ZM22.4565 24.7976H15.1582V13.5697H8.42109V24.7976H1.12281V10.6463L11.7895 1.48027L22.4564 10.6463L22.4565 24.7976ZM28.7756 24.7976H27.5193V21.1624H28.7755L28.7756 24.7976ZM34.8772 24.7976H29.8984V20.0396H26.3965V24.7976H23.5793V14.0383L28.1473 10.113L34.8772 15.8957L34.8772 24.7976Z" fill="#555555"/>
</svg>
